HIERARCHY
ROOT mixamorig:Hips
{
	OFFSET 0.000000 201.639420 0.000000
	CHANNELS 6 Xposition Yposition Zposition Xrotation Yrotation Zrotation
	JOINT mixamorig:Spine
	{
		OFFSET 0.006200 19.524994 -2.481800
		CHANNELS 3 Xrotation Yrotation Zrotation
		JOINT mixamorig:Spine1
		{
			OFFSET -0.000900 22.835007 -2.825400
			CHANNELS 3 Xrotation Yrotation Zrotation
			JOINT mixamorig:Spine2
			{
				OFFSET -0.020600 26.552490 -3.193300
				CHANNELS 3 Xrotation Yrotation Zrotation
				JOINT mixamorig:Neck
				{
					OFFSET -0.060000 30.701813 1.352200
					CHANNELS 3 Xrotation Yrotation Zrotation
					JOINT mixamorig:Head
					{
						OFFSET -0.087200 22.547607 3.670900
						CHANNELS 3 Xrotation Yrotation Zrotation
						JOINT mixamorig:HeadTop_End
						{
							OFFSET -0.830600 40.355194 7.893500
							CHANNELS 3 Xrotation Yrotation Zrotation
							End Site
							{
								OFFSET 0.000000 30.592346 0.000000
							}
						}
						JOINT mixamorig:RightEye
						{
							OFFSET -6.302100 18.118591 16.197100
							CHANNELS 3 Xrotation Yrotation Zrotation
							End Site
							{
								OFFSET 0.000000 30.592346 0.000000
							}
						}
						JOINT mixamorig:LeftEye
						{
							OFFSET 6.741500 18.382690 16.401899
							CHANNELS 3 Xrotation Yrotation Zrotation
							End Site
							{
								OFFSET 0.000000 30.592346 0.000000
							}
						}
					}
				}
				JOINT mixamorig:LeftShoulder
				{
					OFFSET 11.924900 18.230499 1.425400
					CHANNELS 3 Xrotation Yrotation Zrotation
					JOINT mixamorig:LeftArm
					{
						OFFSET 25.435989 -0.697632 -5.229300
						CHANNELS 3 Xrotation Yrotation Zrotation
						JOINT mixamorig:LeftForeArm
						{
							OFFSET 54.684776 0.000000 0.000000
							CHANNELS 3 Xrotation Yrotation Zrotation
							JOINT mixamorig:LeftHand
							{
								OFFSET 55.098175 0.000000 0.000000
								CHANNELS 3 Xrotation Yrotation Zrotation
								JOINT mixamorig:LeftHandMiddle1
								{
									OFFSET 23.369751 0.000000 0.000000
									CHANNELS 3 Xrotation Yrotation Zrotation
									JOINT mixamorig:LeftHandMiddle2
									{
										OFFSET 6.378677 0.000000 0.000000
										CHANNELS 3 Xrotation Yrotation Zrotation
										JOINT mixamorig:LeftHandMiddle3
										{
											OFFSET 6.148331 0.000000 0.000000
											CHANNELS 3 Xrotation Yrotation Zrotation
											JOINT mixamorig:LeftHandMiddle4
											{
												OFFSET 6.582504 0.000000 0.000000
												CHANNELS 3 Xrotation Yrotation Zrotation
												End Site
												{
													OFFSET -1.168900 6.395691 1.028606
												}
											}
										}
									}
								}
								JOINT mixamorig:LeftHandThumb1
								{
									OFFSET 7.235672 -3.848206 5.434273
									CHANNELS 3 Xrotation Yrotation Zrotation
									JOINT mixamorig:LeftHandThumb2
									{
										OFFSET 6.568451 -3.792297 3.792300
										CHANNELS 3 Xrotation Yrotation Zrotation
										JOINT mixamorig:LeftHandThumb3
										{
											OFFSET 6.063080 -3.500519 3.500518
											CHANNELS 3 Xrotation Yrotation Zrotation
											JOINT mixamorig:LeftHandThumb4
											{
												OFFSET 4.793182 -2.767334 2.767349
												CHANNELS 3 Xrotation Yrotation Zrotation
												End Site
												{
													OFFSET 0.101639 6.054260 1.275483
												}
											}
										}
									}
								}
								JOINT mixamorig:LeftHandIndex1
								{
									OFFSET 23.101074 -0.309540 4.992809
									CHANNELS 3 Xrotation Yrotation Zrotation
									JOINT mixamorig:LeftHandIndex2
									{
										OFFSET 6.226883 0.000000 0.000000
										CHANNELS 3 Xrotation Yrotation Zrotation
										JOINT mixamorig:LeftHandIndex3
										{
											OFFSET 6.094330 0.000000 0.000000
											CHANNELS 3 Xrotation Yrotation Zrotation
											JOINT mixamorig:LeftHandIndex4
											{
												OFFSET 5.482605 0.000000 0.000000
												CHANNELS 3 Xrotation Yrotation Zrotation
												End Site
												{
													OFFSET -1.427902 5.233032 0.797164
												}
											}
										}
									}
								}
								JOINT mixamorig:LeftHandRing1
								{
									OFFSET 22.299240 0.021149 -3.964172
									CHANNELS 3 Xrotation Yrotation Zrotation
									JOINT mixamorig:LeftHandRing2
									{
										OFFSET 6.321869 0.000000 0.000000
										CHANNELS 3 Xrotation Yrotation Zrotation
										JOINT mixamorig:LeftHandRing3
										{
											OFFSET 5.899796 0.000000 0.000000
											CHANNELS 3 Xrotation Yrotation Zrotation
											JOINT mixamorig:LeftHandRing4
											{
												OFFSET 6.517899 0.000000 0.000000
												CHANNELS 3 Xrotation Yrotation Zrotation
												End Site
												{
													OFFSET -1.637299 6.232208 0.980890
												}
											}
										}
									}
								}
								JOINT mixamorig:LeftHandPinky1
								{
									OFFSET 20.463791 -0.302338 -8.562233
									CHANNELS 3 Xrotation Yrotation Zrotation
									JOINT mixamorig:LeftHandPinky2
									{
										OFFSET 6.908646 0.000000 0.000000
										CHANNELS 3 Xrotation Yrotation Zrotation
										JOINT mixamorig:LeftHandPinky3
										{
											OFFSET 4.622849 0.000000 0.000000
											CHANNELS 3 Xrotation Yrotation Zrotation
											JOINT mixamorig:LeftHandPinky4
											{
												OFFSET 5.216080 0.000000 0.000000
												CHANNELS 3 Xrotation Yrotation Zrotation
												End Site
												{
													OFFSET -0.606308 5.116241 0.814926
												}
											}
										}
									}
								}
							}
						}
					}
				}
				JOINT mixamorig:RightShoulder
				{
					OFFSET -12.001300 18.284088 1.348900
					CHANNELS 3 Xrotation Yrotation Zrotation
					JOINT mixamorig:RightArm
					{
						OFFSET -25.308500 -0.751312 -5.164599
						CHANNELS 3 Xrotation Yrotation Zrotation
						JOINT mixamorig:RightForeArm
						{
							OFFSET -54.684429 0.000000 0.000000
							CHANNELS 3 Xrotation Yrotation Zrotation
							JOINT mixamorig:RightHand
							{
								OFFSET -55.150291 0.000000 0.000000
								CHANNELS 3 Xrotation Yrotation Zrotation
								JOINT mixamorig:RightHandMiddle1
								{
									OFFSET -23.317566 0.000000 0.000000
									CHANNELS 3 Xrotation Yrotation Zrotation
									JOINT mixamorig:RightHandMiddle2
									{
										OFFSET -6.378403 0.000000 0.000000
										CHANNELS 3 Xrotation Yrotation Zrotation
										JOINT mixamorig:RightHandMiddle3
										{
											OFFSET -6.148193 0.000000 0.000000
											CHANNELS 3 Xrotation Yrotation Zrotation
											JOINT mixamorig:RightHandMiddle4
											{
												OFFSET -6.583389 0.000000 0.000000
												CHANNELS 3 Xrotation Yrotation Zrotation
												End Site
												{
													OFFSET 1.171692 6.395905 1.029786
												}
											}
										}
									}
								}
								JOINT mixamorig:RightHandThumb1
								{
									OFFSET -7.190521 -3.860474 5.435846
									CHANNELS 3 Xrotation Yrotation Zrotation
									JOINT mixamorig:RightHandThumb2
									{
										OFFSET -6.567429 -3.791718 3.791708
										CHANNELS 3 Xrotation Yrotation Zrotation
										JOINT mixamorig:RightHandThumb3
										{
											OFFSET -6.062469 -3.500153 3.500166
											CHANNELS 3 Xrotation Yrotation Zrotation
											JOINT mixamorig:RightHandThumb4
											{
												OFFSET -4.792618 -2.767029 2.767022
												CHANNELS 3 Xrotation Yrotation Zrotation
												End Site
												{
													OFFSET -0.100327 6.053253 1.276754
												}
											}
										}
									}
								}
								JOINT mixamorig:RightHandIndex1
								{
									OFFSET -23.048981 -0.310791 4.992554
									CHANNELS 3 Xrotation Yrotation Zrotation
									JOINT mixamorig:RightHandIndex2
									{
										OFFSET -6.227539 0.000000 0.000000
										CHANNELS 3 Xrotation Yrotation Zrotation
										JOINT mixamorig:RightHandIndex3
										{
											OFFSET -6.095047 0.000000 0.000000
											CHANNELS 3 Xrotation Yrotation Zrotation
											JOINT mixamorig:RightHandIndex4
											{
												OFFSET -5.484772 0.000000 0.000000
												CHANNELS 3 Xrotation Yrotation Zrotation
												End Site
												{
													OFFSET 1.420593 5.237305 0.797056
												}
											}
										}
									}
								}
								JOINT mixamorig:RightHandRing1
								{
									OFFSET -22.246323 0.020569 -3.963762
									CHANNELS 3 Xrotation Yrotation Zrotation
									JOINT mixamorig:RightHandRing2
									{
										OFFSET -6.322128 0.000000 0.000000
										CHANNELS 3 Xrotation Yrotation Zrotation
										JOINT mixamorig:RightHandRing3
										{
											OFFSET -5.900024 0.000000 0.000000
											CHANNELS 3 Xrotation Yrotation Zrotation
											JOINT mixamorig:RightHandRing4
											{
												OFFSET -6.518356 0.000000 0.000000
												CHANNELS 3 Xrotation Yrotation Zrotation
												End Site
												{
													OFFSET 1.636398 6.232697 0.982186
												}
											}
										}
									}
								}
								JOINT mixamorig:RightHandPinky1
								{
									OFFSET -20.411011 -0.303314 -8.561701
									CHANNELS 3 Xrotation Yrotation Zrotation
									JOINT mixamorig:RightHandPinky2
									{
										OFFSET -6.907349 0.000000 0.000000
										CHANNELS 3 Xrotation Yrotation Zrotation
										JOINT mixamorig:RightHandPinky3
										{
											OFFSET -4.623840 0.000000 0.000000
											CHANNELS 3 Xrotation Yrotation Zrotation
											JOINT mixamorig:RightHandPinky4
											{
												OFFSET -5.218353 0.000000 0.000000
												CHANNELS 3 Xrotation Yrotation Zrotation
												End Site
												{
													OFFSET 0.602097 5.118835 0.816273
												}
											}
										}
									}
								}
							}
						}
					}
				}
			}
		}
	}
	JOINT mixamorig:LeftUpLeg
	{
		OFFSET 18.168400 -13.561905 -0.039000
		CHANNELS 3 Xrotation Yrotation Zrotation
		JOINT mixamorig:LeftLeg
		{
			OFFSET 0.577358 -80.825211 -3.695000
			CHANNELS 3 Xrotation Yrotation Zrotation
			JOINT mixamorig:LeftFoot
			{
				OFFSET -0.577356 -83.370262 -6.520700
				CHANNELS 3 Xrotation Yrotation Zrotation
				JOINT mixamorig:LeftToeBase
				{
					OFFSET 0.750401 -20.798306 25.135401
					CHANNELS 3 Xrotation Yrotation Zrotation
					JOINT mixamorig:LeftToe_End
					{
						OFFSET -0.000500 0.001200 19.917799
						CHANNELS 3 Xrotation Yrotation Zrotation
						End Site
						{
							OFFSET 0.000000 19.917805 0.000000
						}
					}
				}
			}
		}
	}
	JOINT mixamorig:RightUpLeg
	{
		OFFSET -18.162500 -13.585098 -0.041000
		CHANNELS 3 Xrotation Yrotation Zrotation
		JOINT mixamorig:RightLeg
		{
			OFFSET -0.595024 -80.945297 -3.631900
			CHANNELS 3 Xrotation Yrotation Zrotation
			JOINT mixamorig:RightFoot
			{
				OFFSET 0.595024 -83.218193 -6.561200
				CHANNELS 3 Xrotation Yrotation Zrotation
				JOINT mixamorig:RightToeBase
				{
					OFFSET -0.753601 -20.807106 25.115000
					CHANNELS 3 Xrotation Yrotation Zrotation
					JOINT mixamorig:RightToe_End
					{
						OFFSET 0.000299 0.001700 19.918200
						CHANNELS 3 Xrotation Yrotation Zrotation
						End Site
						{
							OFFSET 0.000000 19.918203 0.000000
						}
					}
				}
			}
		}
	}
}
MOTION
Frames: 4
Frame Time: 0.033333
-8.930014 190.253174 15.821959 43.135810 97.529043 -39.138500 9.961822 -7.055582 -2.669437 3.333947 -0.952836 0.458261 3.341206 -0.934160 0.433364 2.493911 0.298557 0.512541 -9.439514 2.721616 -1.743377 0.000000 -0.000000 0.000000 0.000000 -0.000000 0.000000 0.000000 -0.000000 0.000000 0.666199 -2.099357 -12.939751 -16.149711 -41.337804 -52.413697 0.000004 -38.735690 -0.000007 -53.118176 -5.315469 3.812662 0.009374 0.359687 -2.981931 0.127511 1.321686 -11.021808 0.007910 0.330307 -2.738105 0.000001 0.000000 -0.000000 -1.482461 3.819580 5.263366 5.796113 12.881681 2.187843 3.243907 10.855319 4.892426 0.000000 -0.000005 -0.000000 0.009477 0.361609 -2.997912 0.127174 1.319796 -11.005812 0.007896 0.330310 -2.738112 -0.000000 0.000001 0.000001 0.016027 0.470226 -3.899646 0.181481 1.573465 -13.156940 0.007898 0.330317 -2.738115 -0.000000 0.000001 -0.000001 0.231860 4.453412 -2.857505 0.349436 -1.891266 -18.750797 0.010420 0.379516 -3.146400 0.000003 -0.000001 0.000003 0.633990 -1.774691 10.619883 -31.204300 45.950651 57.139778 0.000010 14.151865 0.000008 -54.946789 20.910836 -7.635862 0.000072 0.031097 -0.255207 0.037440 -0.722094 5.936183 0.002066 -0.169533 1.391258 0.000001 0.000000 0.000001 -2.271884 -2.271141 -14.849335 5.846237 -11.751434 -2.230414 1.256083 -5.734774 -5.400845 -0.000003 -0.000003 -0.000001 0.000061 0.031100 -0.255206 0.037456 -0.722098 5.936178 0.002064 -0.169528 1.391266 0.000002 0.000002 0.000001 -0.000001 0.010718 -0.087936 0.037452 -0.722100 5.936173 0.002057 -0.169532 1.391271 0.000000 0.000001 0.000004 0.003022 -0.205806 1.689018 0.037440 -0.722089 5.936181 0.002049 -0.169531 1.391268 0.000000 -0.000004 -0.000001 -12.960364 14.020594 -9.062502 34.840276 5.423659 0.882115 -16.860904 -0.041098 6.889882 -1.844561 0.000005 -0.000001 0.000000 -0.000000 -0.000000 -34.087903 0.887900 -9.827377 65.718400 -5.116254 0.109016 11.249938 0.480964 7.047073 -23.513655 -0.169039 0.739906 -0.000000 -0.000001 0.000000 
-15.932633 189.489136 15.785473 34.464626 98.658360 -28.886134 9.919195 -7.093251 -3.726545 3.193882 -0.960298 0.012462 3.197632 -0.945755 -0.010594 3.135535 -0.074527 0.235501 -7.622593 0.292236 -1.185982 -0.000000 -0.000000 -0.000000 -0.000000 -0.000000 -0.000000 -0.000000 -0.000000 -0.000000 0.652767 -2.472810 -14.889811 -20.868045 -44.114539 -52.442988 -0.000000 -28.728640 0.000003 -52.465152 -6.517597 2.302833 0.009149 0.355890 -2.950391 0.125590 1.311700 -10.937565 0.007784 0.327644 -2.715993 -0.000003 -0.000001 0.000001 -1.490559 3.801804 5.384580 5.795563 12.887798 2.190255 3.237176 10.848184 4.892994 0.000000 0.000001 0.000001 0.009250 0.357821 -2.966376 0.125237 1.309819 -10.921571 0.007789 0.327631 -2.715984 -0.000001 0.000003 -0.000001 0.015748 0.466435 -3.868108 0.179310 1.564155 -13.077593 0.007765 0.327640 -2.715995 -0.000000 -0.000003 0.000000 0.229384 4.449730 -2.825866 0.346154 -1.900882 -18.666702 0.010284 0.376860 -3.124278 -0.000002 -0.000001 -0.000000 0.621770 -2.047822 10.356876 -31.937428 45.372889 59.492833 -0.000003 14.044311 -0.000003 -57.106952 18.380249 -10.043665 0.000042 0.024208 -0.198597 0.038503 -0.732345 6.020813 0.002137 -0.172604 1.416439 -0.000001 -0.000000 0.000001 -2.268549 -2.284794 -14.765124 5.830178 -11.700872 -2.203519 1.228167 -5.652786 -5.358616 -0.000002 -0.000001 0.000003 0.000044 0.024210 -0.198602 0.038505 -0.732340 6.020818 0.002133 -0.172604 1.416428 0.000001 -0.000002 -0.000002 0.000015 0.003322 -0.027255 0.038486 -0.732351 6.020815 0.002134 -0.172592 1.416437 -0.000002 -0.000002 -0.000001 0.003252 -0.213490 1.752040 0.038503 -0.732346 6.020815 0.002138 -0.172598 1.416437 -0.000001 0.000000 0.000001 -15.082793 12.814491 -10.152905 36.078968 2.552821 -0.219678 -15.428013 -0.996649 7.740479 -3.911593 0.000008 0.000002 -0.000000 -0.000002 -0.000000 -31.763569 2.558691 -10.224456 71.437290 -5.493071 0.316971 14.775019 0.831898 9.255748 -26.524288 -0.199109 0.685217 -0.000001 -0.000000 0.000000 
-20.830147 189.388092 16.099060 33.853170 98.399537 -27.003762 9.251043 -6.004947 -4.705352 2.968242 -0.821700 -0.492844 2.968499 -0.811741 -0.511153 4.338010 -0.254679 -0.136106 -5.477783 -1.289166 -0.474986 0.000000 0.000000 0.000000 0.000000 0.000000 0.000000 0.000000 0.000000 0.000000 0.665070 -2.028432 -15.975520 -22.788438 -47.122930 -50.017673 -0.000013 -20.008822 -0.000007 -51.533101 -7.702995 0.459324 0.010087 0.373462 -3.096177 0.134657 1.357812 -11.327049 0.008380 0.339954 -2.818239 -0.000001 -0.000001 0.000001 -1.452986 3.883895 4.824159 5.795033 12.894092 2.192703 3.230465 10.841157 4.893611 0.000003 -0.000001 0.000001 0.010196 0.375379 -3.112167 0.134284 1.355915 -11.311047 0.008359 0.339959 -2.818248 0.000000 -0.000001 -0.000002 0.016938 0.483998 -4.013903 0.189447 1.607215 -13.444413 0.008359 0.339965 -2.818241 0.000000 -0.000001 -0.000001 0.240760 4.466736 -2.972166 0.361371 -1.856443 -19.055466 0.010958 0.389159 -3.226533 -0.000002 0.000002 -0.000003 0.628674 -1.661641 10.457397 -31.495017 44.853299 62.048416 0.000005 15.408330 -0.000004 -58.057790 16.295682 -10.169861 0.000003 0.007499 -0.061558 0.041170 -0.757169 6.225680 0.002313 -0.180025 1.477380 0.000002 -0.000001 -0.000002 -2.260345 -2.317827 -14.561263 5.813927 -11.649180 -2.176005 1.199875 -5.569369 -5.315614 0.000000 0.000002 -0.000000 0.000003 0.007499 -0.061556 0.041176 -0.757160 6.225679 0.002305 -0.180029 1.477382 0.000002 -0.000001 -0.000001 0.000019 -0.014584 0.119677 0.041171 -0.757168 6.225675 0.002316 -0.180019 1.477376 -0.000002 -0.000003 -0.000000 0.003844 -0.232068 1.904623 0.041188 -0.757173 6.225665 0.002328 -0.180023 1.477375 0.000002 0.000001 0.000001 -16.139163 12.570811 -11.114005 35.841991 1.610721 -0.542966 -13.955617 -1.246248 7.452944 -5.016267 0.000002 -0.000002 0.000000 -0.000002 -0.000000 -26.584181 3.707187 -10.114539 72.794537 -5.685881 0.591211 16.223757 1.041350 10.928076 -26.428538 -0.200104 0.611407 0.000000 0.000000 -0.000000 
-23.392517 190.124130 16.685192 40.658036 96.550079 -33.045948 8.082804 -3.813854 -5.232339 2.649926 -0.534047 -0.973184 2.647711 -0.528938 -0.984011 5.676373 -0.189147 -0.832091 -3.311457 -1.951720 0.270525 0.000000 -0.000000 0.000000 0.000000 -0.000000 0.000000 0.000000 -0.000000 0.000000 0.747137 -0.644521 -16.271385 -20.588673 -49.911874 -44.104311 -0.000008 -14.137724 -0.000001 -50.792244 -8.463880 -1.077111 0.011255 0.394626 -3.271736 0.145999 1.413218 -11.796042 0.009124 0.354799 -2.941372 -0.000000 0.000001 0.000001 -1.406685 3.982266 4.149193 5.794550 12.900522 2.195186 3.223783 10.834269 4.894293 0.000001 0.000000 0.000003 0.011376 0.396539 -3.287720 0.145619 1.411335 -11.780057 0.009100 0.354802 -2.941370 -0.000000 -0.000000 -0.000001 0.018455 0.505121 -4.189464 0.202040 1.658966 -13.886126 0.009105 0.354807 -2.941366 0.000000 0.000001 -0.000001 0.254519 4.487147 -3.148331 0.380038 -1.803057 -19.523611 0.011819 0.404008 -3.349659 0.000000 -0.000000 0.000003 0.614568 -0.388566 10.335396 -30.748231 44.913104 65.461346 0.000004 17.362199 0.000013 -58.207084 15.839291 -8.282985 0.000015 -0.006253 0.051353 0.043423 -0.777611 6.394480 0.002487 -0.186143 1.527586 0.000002 0.000001 0.000001 -2.253512 -2.345034 -14.393314 5.797486 -11.596421 -2.147905 1.171262 -5.484539 -5.271836 -0.000001 -0.000006 -0.000003 0.000014 -0.006257 0.051357 0.043433 -0.777606 6.394479 0.002488 -0.186147 1.527584 0.000002 -0.000002 0.000000 0.000046 -0.029340 0.240742 0.043451 -0.777612 6.394470 0.002477 -0.186144 1.527580 -0.000001 -0.000001 0.000001 0.004380 -0.247371 2.030338 0.043423 -0.777615 6.394475 0.002473 -0.186135 1.527589 -0.000001 -0.000001 0.000000 -16.063005 13.081005 -11.902655 33.634505 2.778802 -0.125211 -12.222847 -0.977645 6.907837 -4.962012 0.000017 -0.000001 -0.000000 0.000002 0.000000 -18.930067 4.589263 -9.643452 68.769787 -6.554620 0.906325 15.712975 1.039850 11.349576 -29.496759 -0.332108 0.955118 0.000001 0.000001 -0.000000 
